<svg xmlns="http://www.w3.org/2000/svg" height="30.667" width="1533.333"><defs><clipPath id="a"><path d="M0 23h1150V0H0z"/></clipPath></defs><g clip-path="url(#a)" transform="matrix(1.33333 0 0 -1.33333 0 30.667)"><path d="M1150 0c-9.017 0-13.728 4.589-17.514 8.276-3.412 3.323-5.877 5.724-11.234 5.724-5.358 0-7.823-2.401-11.235-5.724C1106.23 4.589 1101.52 0 1092.503 0s-13.728 4.589-17.514 8.276c-3.412 3.323-5.877 5.724-11.234 5.724-5.358 0-7.822-2.401-11.234-5.724-3.787-3.687-8.498-8.276-17.514-8.276-9.017 0-13.729 4.589-17.515 8.276-3.412 3.323-5.877 5.724-11.235 5.724s-7.822-2.401-11.235-5.724C991.236 4.589 986.525 0 977.509 0c-9.017 0-13.728 4.589-17.514 8.276-3.412 3.323-5.877 5.724-11.234 5.724-5.358 0-7.823-2.401-11.235-5.724C933.74 4.589 929.028 0 920.012 0c-9.017 0-13.729 4.589-17.515 8.276C899.085 11.599 896.62 14 891.263 14c-5.358 0-7.823-2.401-11.235-5.724C876.242 4.589 871.53 0 862.514 0c-9.017 0-13.729 4.589-17.515 8.276-3.412 3.323-5.877 5.724-11.235 5.724-5.356 0-7.821-2.4-11.232-5.723C818.747 4.589 814.036 0 805.021 0c-9.017 0-13.729 4.589-17.515 8.276-3.412 3.323-5.877 5.724-11.235 5.724-5.357 0-7.822-2.401-11.233-5.723C761.253 4.589 756.542 0 747.526 0s-13.728 4.589-17.513 8.277C726.602 11.599 724.137 14 718.779 14c-5.357 0-7.821-2.401-11.233-5.723C703.761 4.589 699.049 0 690.032 0c-9.015 0-13.726 4.589-17.511 8.276-3.412 3.323-5.876 5.724-11.234 5.724-5.357 0-7.822-2.401-11.234-5.724C646.267 4.589 641.556 0 632.539 0s-13.728 4.589-17.515 8.276C611.612 11.599 609.147 14 603.788 14c-5.357 0-7.822-2.401-11.234-5.724C588.768 4.589 584.057 0 575.04 0c-9.016 0-13.728 4.589-17.514 8.276C554.115 11.599 551.65 14 546.292 14s-7.823-2.401-11.234-5.724C531.272 4.589 526.561 0 517.544 0c-9.016 0-13.728 4.589-17.514 8.276-3.411 3.323-5.877 5.724-11.234 5.724-5.359 0-7.823-2.401-11.235-5.724C473.774 4.589 469.062 0 460.046 0c-9.017 0-13.729 4.589-17.516 8.276-3.412 3.323-5.877 5.724-11.237 5.724-5.358 0-7.823-2.401-11.235-5.724C416.272 4.589 411.56 0 402.543 0c-9.016 0-13.729 4.589-17.515 8.276-3.412 3.323-5.877 5.724-11.236 5.724-5.358 0-7.823-2.401-11.235-5.724C358.771 4.589 354.059 0 345.042 0c-9.018 0-13.73 4.589-17.516 8.276-3.412 3.323-5.877 5.724-11.235 5.724-5.359 0-7.824-2.401-11.236-5.724C301.269 4.589 296.556 0 287.539 0c-9.018 0-13.729 4.589-17.516 8.276-3.412 3.323-5.878 5.724-11.237 5.724-5.357 0-7.822-2.401-11.234-5.724C243.767 4.589 239.055 0 230.039 0c-9.017 0-13.728 4.589-17.515 8.276-3.412 3.323-5.877 5.724-11.235 5.724s-7.824-2.401-11.236-5.724C186.267 4.589 181.555 0 172.538 0c-9.017 0-13.73 4.589-17.517 8.276-3.412 3.323-5.877 5.724-11.237 5.724s-7.825-2.401-11.238-5.724C128.76 4.589 124.047 0 115.029 0c-9.018 0-13.73 4.589-17.517 8.276C94.099 11.599 91.633 14 86.273 14c-5.359 0-7.825-2.401-11.238-5.724C71.249 4.589 66.536 0 57.518 0 48.5 0 43.787 4.588 40 8.276 36.586 11.599 34.12 14 28.759 14s-7.827-2.401-11.24-5.724C13.732 4.589 9.019 0 0 0v9c5.361 0 7.827 2.401 11.241 5.724C15.028 18.412 19.741 23 28.759 23c9.019 0 13.732-4.588 17.519-8.276C49.691 11.401 52.157 9 57.518 9c5.36 0 7.825 2.401 11.238 5.724C72.543 18.411 77.255 23 86.273 23c9.019 0 13.731-4.589 17.518-8.276C107.204 11.401 109.669 9 115.029 9c5.36 0 7.826 2.401 11.239 5.724 3.786 3.687 8.499 8.276 17.516 8.276 9.018 0 13.73-4.589 17.517-8.276C164.713 11.401 167.179 9 172.538 9c5.358 0 7.824 2.401 11.236 5.724C187.56 18.411 192.272 23 201.289 23c9.017 0 13.729-4.589 17.515-8.276C222.216 11.401 224.681 9 230.039 9c5.357 0 7.822 2.401 11.234 5.724C245.059 18.411 249.77 23 258.786 23c9.017 0 13.73-4.589 17.516-8.276C279.714 11.401 282.18 9 287.539 9s7.824 2.401 11.236 5.724c3.787 3.687 8.499 8.276 17.516 8.276 9.017 0 13.729-4.589 17.515-8.276C337.218 11.401 339.683 9 345.042 9c5.358 0 7.823 2.401 11.235 5.724 3.786 3.687 8.498 8.276 17.515 8.276 9.017 0 13.729-4.589 17.516-8.276C394.72 11.401 397.185 9 402.543 9c5.359 0 7.824 2.401 11.236 5.724 3.786 3.687 8.498 8.276 17.514 8.276 9.018 0 13.73-4.589 17.517-8.276C452.222 11.401 454.687 9 460.046 9c5.358 0 7.823 2.401 11.235 5.724 3.786 3.687 8.498 8.276 17.515 8.276 9.016 0 13.728-4.589 17.514-8.276C509.721 11.401 512.187 9 517.544 9c5.358 0 7.823 2.401 11.234 5.724 3.786 3.687 8.497 8.276 17.514 8.276 9.016 0 13.728-4.589 17.514-8.276C567.217 11.401 569.682 9 575.04 9c5.357 0 7.822 2.401 11.234 5.724 3.787 3.687 8.497 8.276 17.514 8.276 9.018 0 13.73-4.589 17.516-8.276C624.716 11.401 627.181 9 632.539 9c5.357 0 7.822 2.401 11.234 5.724C647.56 18.411 652.271 23 661.287 23c9.017 0 13.728-4.589 17.513-8.277C682.211 11.4 684.676 9 690.032 9c5.358 0 7.822 2.401 11.235 5.724 3.785 3.687 8.497 8.276 17.512 8.276 9.016 0 13.728-4.589 17.513-8.276C739.704 11.401 742.169 9 747.526 9s7.822 2.401 11.233 5.723c3.785 3.688 8.496 8.277 17.512 8.277s13.728-4.589 17.514-8.276C797.197 11.401 799.662 9 805.021 9c5.356 0 7.821 2.401 11.232 5.724 3.785 3.687 8.496 8.276 17.511 8.276 9.016 0 13.728-4.589 17.514-8.276C854.69 11.401 857.155 9 862.514 9c5.358 0 7.823 2.401 11.235 5.724 3.786 3.687 8.498 8.276 17.514 8.276s13.727-4.589 17.513-8.276C912.188 11.401 914.653 9 920.012 9c5.358 0 7.823 2.401 11.235 5.724 3.786 3.687 8.497 8.276 17.514 8.276 9.016 0 13.727-4.589 17.513-8.276C969.687 11.401 972.151 9 977.509 9c5.357 0 7.822 2.401 11.234 5.724 3.786 3.687 8.497 8.276 17.514 8.276 9.016 0 13.728-4.589 17.514-8.276 3.413-3.323 5.877-5.724 11.236-5.724 5.357 0 7.822 2.401 11.234 5.724 3.786 3.687 8.497 8.276 17.514 8.276 9.016 0 13.727-4.589 17.514-8.276 3.412-3.323 5.877-5.724 11.234-5.724s7.822 2.401 11.234 5.724c3.786 3.687 8.498 8.276 17.515 8.276 9.017 0 13.727-4.589 17.514-8.276C1142.178 11.401 1144.643 9 1150 9z" fill="#e7e8e9"/></g></svg>